<?xml version="1.0" standalone="no"?>
<!DOCTYPE svg PUBLIC "-//W3C//DTD SVG 20010904//EN"
 "http://www.w3.org/TR/2001/REC-SVG-20010904/DTD/svg10.dtd">
<svg version="1.0" xmlns="http://www.w3.org/2000/svg"
 width="32.000000pt" height="32.000000pt" viewBox="0 0 32.000000 32.000000"
 preserveAspectRatio="xMidYMid meet">

<g transform="translate(0.000000,32.000000) scale(0.100000,-0.100000)"
fill="#000000" stroke="none">
<path d="M105 266 c-52 -23 -95 -85 -95 -136 0 -32 19 -72 31 -64 8 4 8 9 0
17 -16 16 -14 73 3 106 63 122 260 61 244 -75 -4 -37 7 -46 17 -13 18 55 -28
139 -92 165 -40 17 -69 17 -108 0z"/>
<path d="M100 153 c0 -8 12 -13 35 -13 24 0 35 5 35 15 0 10 -10 14 -35 13
-22 -1 -35 -6 -35 -15z"/>
<path d="M240 123 c0 -6 -6 -11 -12 -10 -7 0 -22 -1 -33 -2 -18 -2 -18 -3 4
-12 19 -7 28 -6 40 5 8 9 12 19 8 22 -4 4 -7 3 -7 -3z"/>
<path d="M102 111 c-11 -7 -10 -10 3 -15 20 -7 38 1 30 15 -7 11 -16 11 -33 0z"/>
<path d="M120 76 c0 -2 7 -7 16 -10 8 -3 12 -2 9 4 -6 10 -25 14 -25 6z"/>
<path d="M165 70 c-2 -3 13 -7 33 -8 20 -2 33 0 29 4 -9 9 -57 12 -62 4z"/>
</g>
</svg>
